Coordinates
version=1
nRows=4
nColumns=63
inDegrees=yes

Units are S.I. units (second, meters, Newtons, ...)
If the header above contains a line with 'inDegrees', this indicates whether rotational values are in degrees (yes) or radians (no).

endheader
time	pelvis_tilt	pelvis_list	pelvis_rotation	pelvis_tx	pelvis_ty	pelvis_tz	hip_flexion_r	hip_adduction_r	hip_rotation_r	knee_angle_r	knee_angle_r_beta	ankle_angle_r	subtalar_angle_r	mtp_angle_r	hip_flexion_l	hip_adduction_l	hip_rotation_l	knee_angle_l	knee_angle_l_beta	ankle_angle_l	subtalar_angle_l	mtp_angle_l	L5_S1_Flex_Ext	L5_S1_Lat_Bending	L5_S1_axial_rotation	L4_L5_Flex_Ext	L4_L5_Lat_Bending	L4_L5_axial_rotation	L3_L4_Flex_Ext	L3_L4_Lat_Bending	L3_L4_axial_rotation	L2_L3_Flex_Ext	L2_L3_Lat_Bending	L2_L3_axial_rotation	L1_L2_Flex_Ext	L1_L2_Lat_Bending	L1_L2_axial_rotation	L1_T12_Flex_Ext	L1_T12_Lat_Bending	L1_T12_axial_rotation	Abs_r3	Abs_r2	Abs_r1	Abs_t1	Abs_t2	neck_flexion	neck_bending	neck_rotation	arm_flex_r	arm_add_r	arm_rot_r	elbow_flex_r	pro_sup_r	wrist_flex_r	wrist_dev_r	arm_flex_l	arm_add_l	arm_rot_l	elbow_flex_l	pro_sup_l	wrist_flex_l	wrist_dev_l
      3.15000000	      2.96776229	    -21.86153147	     98.92931312	      0.22978611	      0.76833614	      0.53990591	     29.58275804	     -3.04321719	     -7.80880438	     34.58067788	      0.60354669	     48.73620973	      2.45621758	      0.00000000	     24.72448719	     -7.76129718	     -6.45976883	     24.85081210	      0.43372849	     52.10498466	     17.20965795	      0.00000000	      0.12467606	      0.36692565	      0.61680474	      0.23153592	      0.48801111	      0.65535503	      0.20483031	      0.89214302	      0.65535503	      0.14249227	      0.89214302	      0.53970415	      0.11577419	      0.74823478	      0.50115385	      0.07123990	      0.56836783	      0.46260355	      0.89054866	      4.15073631	      3.43048291	      0.00000000	      0.00000000	     22.94627597	     -4.25374584	      5.28247714	     97.43822431	    -62.51449903	    189.17296014	      7.50157613	     36.41961032	     -5.79521662	     12.60466702	     77.27470785	    -73.56694104	   -196.31687564	      2.30263530	     75.28966012	    -15.35332655	     25.55527011
      3.16666667	      3.24170351	    -21.75954618	     99.11753940	      0.22907105	      0.77031906	      0.53742412	     28.68566998	     -2.92930341	     -8.82847081	     33.31701917	      0.58149168	     48.33995453	      3.29146995	      0.00000000	     24.12488064	     -7.89735390	     -6.30607890	     23.92562120	      0.41758087	     51.63292955	     17.33437369	      0.00000000	      0.13226652	      0.40235798	      0.69637444	      0.24563216	      0.53513611	      0.73989785	      0.21730067	      0.97829319	      0.73989785	      0.15116741	      0.97829319	      0.60932764	      0.12282269	      0.82048839	      0.56580424	      0.07557709	      0.62325251	      0.52228083	      0.94476654	      4.55155391	      3.87302575	      0.00000000	      0.00000000	     22.98159328	     -4.38495347	      5.18176137	     97.91982319	    -66.61528713	    179.52190540	     11.49680981	     24.67660703	     -7.14718246	     14.41517186	     70.74181507	    -75.36283929	   -193.77199911	      3.49010551	     78.47624216	     -5.33082367	     27.16966666
      3.18333333	      2.97885942	    -21.66202370	     98.90346832	      0.22960106	      0.77240370	      0.53416873	     27.74116188	     -3.09804998	     -9.38772163	     32.12167305	      0.56062896	     48.10390009	      4.17038590	      0.00000000	     23.10401657	     -7.62395405	     -6.34362357	     22.56111722	      0.39376578	     50.92140137	     17.28452111	      0.00000000	      0.14323284	      0.34573415	      0.80306666	      0.26599771	      0.45982641	      0.85325832	      0.23531723	      0.84061800	      0.85325832	      0.16370081	      0.84061800	      0.70268333	      0.13300601	      0.70502107	      0.65249166	      0.08184324	      0.53554219	      0.60229999	      1.02309785	      3.91101380	      4.46641583	      0.00000000	      0.00000000	     22.52928381	     -3.65620691	      3.68581596	     93.36968862	    -70.44398472	    173.45312406	     13.62059964	     10.35592481	     -7.85170202	     14.68839242	     66.21492804	    -77.38854863	   -192.25438488	      6.16055259	     80.48196712	      0.21905804	     26.73128436
      3.20000000	      2.95185878	    -21.10645265	     99.13835688	      0.22960484	      0.77499165	      0.53154411	     26.23604035	     -3.16094985	    -10.53219916	     30.78709136	      0.53733611	     47.82201915	      5.03170157	      0.00000000	     21.78397658	     -7.39064420	     -5.29683506	     21.26572390	      0.37115690	     50.04410464	     16.46318741	      0.00000000	      0.12870641	      0.31205979	      1.04604790	      0.23902067	      0.41503952	      1.11142589	      0.21145176	      0.75874217	      1.11142589	      0.14709855	      0.75874217	      0.91529191	      0.11951677	      0.63635232	      0.84991392	      0.07354284	      0.48338061	      0.78453593	      0.91933700	      3.53008272	      5.81780461	      0.00000000	      0.00000000	     21.00509778	     -3.18927828	      0.38142577	     82.35486588	    -75.86017718	    156.07096195	     14.74480307	      7.08600100	     -8.40993139	     14.09793942	     60.94207151	    -69.63658356	   -113.96104989	     17.20432297	      8.80563083	     -1.92820760	     20.91665081
